<svg width="41" height="12" viewBox="0 0 41 12" fill="none" xmlns="http://www.w3.org/2000/svg">
<path d="M3.751 9.434C4.315 9.41 4.807 9.236 5.227 8.912C5.659 8.576 5.989 8.132 6.217 7.58C6.445 7.028 6.559 6.428 6.559 5.78C6.559 4.856 6.343 4.106 5.911 3.53C5.479 2.942 4.897 2.648 4.165 2.648C4.081 2.648 3.943 2.66 3.751 2.684L2.347 2.918V9.488L3.751 9.434ZM0.025 1.28L3.751 0.524C4.027 0.464 4.345 0.434 4.705 0.434C5.533 0.434 6.295 0.65 6.991 1.082C7.699 1.514 8.257 2.114 8.665 2.882C9.085 3.65 9.295 4.52 9.295 5.492C9.295 6.596 9.037 7.616 8.521 8.552C8.005 9.488 7.321 10.232 6.469 10.784C5.617 11.324 4.711 11.594 3.751 11.594H1.285C0.937 11.594 0.637 11.468 0.385 11.216C0.145 10.976 0.025 10.682 0.025 10.334V1.28ZM15.5632 9.596C16.3432 9.596 16.9792 9.29 17.4712 8.678C17.9752 8.066 18.2272 7.178 18.2272 6.014C18.2272 4.934 18.0112 4.118 17.5792 3.566C17.1472 3.002 16.5892 2.72 15.9052 2.72C15.1132 2.72 14.4592 3.026 13.9432 3.638C13.4272 4.25 13.1692 5.138 13.1692 6.302C13.1692 7.382 13.3912 8.204 13.8352 8.768C14.2792 9.32 14.8552 9.596 15.5632 9.596ZM10.7392 6.446C10.7392 5.27 10.9492 4.256 11.3692 3.404C11.8012 2.552 12.3832 1.886 13.1152 1.406C13.8592 0.914 14.6992 0.614 15.6352 0.506C15.9472 0.482 16.1812 0.469999 16.3372 0.469999C17.2372 0.469999 18.0412 0.667999 18.7492 1.064C19.4692 1.46 20.0332 2.06 20.4412 2.864C20.8612 3.668 21.0712 4.664 21.0712 5.852C21.0712 7.136 20.8252 8.228 20.3332 9.128C19.8532 10.028 19.1992 10.7 18.3712 11.144C17.5552 11.588 16.6432 11.81 15.6352 11.81C14.6992 11.81 13.8592 11.606 13.1152 11.198C12.3832 10.802 11.8012 10.202 11.3692 9.398C10.9492 8.594 10.7392 7.61 10.7392 6.446ZM28.7534 1.748C28.7534 1.436 28.8554 1.16 29.0594 0.92C29.2754 0.679999 29.5394 0.547999 29.8514 0.524L31.5434 0.344V11.594H28.7174L24.9734 5.384V11.594H22.5074V1.28L24.9734 1.028L28.7534 7.13V1.748ZM35.7835 5.006L40.3735 4.592V6.824L35.7835 7.094V9.506L40.9675 9.362V10.46C40.9675 10.772 40.8595 11.036 40.6435 11.252C40.4275 11.48 40.1635 11.594 39.8515 11.594H33.3355V1.28L40.9675 0.163999V2.414L35.7835 3.008V5.006Z" fill="#FCD34D"/>
</svg>
