<svg width="47" height="12" viewBox="0 0 47 12" fill="none" xmlns="http://www.w3.org/2000/svg">
<path d="M9.05873 0.469999V2.666L5.94473 2.882V10.478C5.94473 10.778 5.83673 11.036 5.62073 11.252C5.41673 11.468 5.15873 11.576 4.84673 11.576H3.31673V3.098L0.454727 3.296V1.28L9.05873 0.469999ZM14.7751 9.596C15.5551 9.596 16.1911 9.29 16.6831 8.678C17.1871 8.066 17.4391 7.178 17.4391 6.014C17.4391 4.934 17.2231 4.118 16.7911 3.566C16.3591 3.002 15.8011 2.72 15.1171 2.72C14.3251 2.72 13.6711 3.026 13.1551 3.638C12.6391 4.25 12.3811 5.138 12.3811 6.302C12.3811 7.382 12.6031 8.204 13.0471 8.768C13.4911 9.32 14.0671 9.596 14.7751 9.596ZM9.95113 6.446C9.95113 5.27 10.1611 4.256 10.5811 3.404C11.0131 2.552 11.5951 1.886 12.3271 1.406C13.0711 0.914 13.9111 0.614 14.8471 0.506C15.1591 0.482 15.3931 0.469999 15.5491 0.469999C16.4491 0.469999 17.2531 0.667999 17.9611 1.064C18.6811 1.46 19.2451 2.06 19.6531 2.864C20.0731 3.668 20.2831 4.664 20.2831 5.852C20.2831 7.136 20.0371 8.228 19.5451 9.128C19.0651 10.028 18.4111 10.7 17.5831 11.144C16.7671 11.588 15.8551 11.81 14.8471 11.81C13.9111 11.81 13.0711 11.606 12.3271 11.198C11.5951 10.802 11.0131 10.202 10.5811 9.398C10.1611 8.594 9.95113 7.61 9.95113 6.446ZM29.0489 9.434C29.6129 9.41 30.1049 9.236 30.5249 8.912C30.9569 8.576 31.2869 8.132 31.5149 7.58C31.7429 7.028 31.8569 6.428 31.8569 5.78C31.8569 4.856 31.6409 4.106 31.2089 3.53C30.7769 2.942 30.1949 2.648 29.4629 2.648C29.3789 2.648 29.2409 2.66 29.0489 2.684L27.6449 2.918V9.488L29.0489 9.434ZM25.3229 1.28L29.0489 0.524C29.3249 0.464 29.6429 0.434 30.0029 0.434C30.8309 0.434 31.5929 0.65 32.2889 1.082C32.9969 1.514 33.5549 2.114 33.9629 2.882C34.3829 3.65 34.5929 4.52 34.5929 5.492C34.5929 6.596 34.3349 7.616 33.8189 8.552C33.3029 9.488 32.6189 10.232 31.7669 10.784C30.9149 11.324 30.0089 11.594 29.0489 11.594H26.5829C26.2349 11.594 25.9349 11.468 25.6829 11.216C25.4429 10.976 25.3229 10.682 25.3229 10.334V1.28ZM40.8611 9.596C41.6411 9.596 42.2771 9.29 42.7691 8.678C43.2731 8.066 43.5251 7.178 43.5251 6.014C43.5251 4.934 43.3091 4.118 42.8771 3.566C42.4451 3.002 41.8871 2.72 41.2031 2.72C40.4111 2.72 39.7571 3.026 39.2411 3.638C38.7251 4.25 38.4671 5.138 38.4671 6.302C38.4671 7.382 38.6891 8.204 39.1331 8.768C39.5771 9.32 40.1531 9.596 40.8611 9.596ZM36.0371 6.446C36.0371 5.27 36.2471 4.256 36.6671 3.404C37.0991 2.552 37.6811 1.886 38.4131 1.406C39.1571 0.914 39.9971 0.614 40.9331 0.506C41.2451 0.482 41.4791 0.469999 41.6351 0.469999C42.5351 0.469999 43.3391 0.667999 44.0471 1.064C44.7671 1.46 45.3311 2.06 45.7391 2.864C46.1591 3.668 46.3691 4.664 46.3691 5.852C46.3691 7.136 46.1231 8.228 45.6311 9.128C45.1511 10.028 44.4971 10.7 43.6691 11.144C42.8531 11.588 41.9411 11.81 40.9331 11.81C39.9971 11.81 39.1571 11.606 38.4131 11.198C37.6811 10.802 37.0991 10.202 36.6671 9.398C36.2471 8.594 36.0371 7.61 36.0371 6.446Z" fill="#15803D"/>
</svg>
